<svg xmlns="http://www.w3.org/2000/svg" width="23pt" height="19pt" viewBox="0 0 23 19" fill="white"><path d="M 13.875 8.480469 C 13.941406 8.839844 13.988281 9.199219 13.988281 9.664062 C 13.988281 13.738281 11.34375 16.625 7.359375 16.625 C 3.546875 16.625 0.460938 13.4375 0.460938 9.5 C 0.460938 5.5625 3.546875 2.375 7.359375 2.375 C 9.222656 2.375 10.777344 3.074219 11.980469 4.242188 L 10.109375 6.097656 C 9.601562 5.59375 8.707031 5 7.359375 5 C 5.007812 5 3.085938 7.011719 3.085938 9.5 C 3.085938 11.988281 5.007812 14 7.359375 14 C 10.089844 14 11.117188 11.96875 11.277344 10.929688 L 7.359375 10.929688 L 7.359375 8.480469 Z M 20.535156 8.71875 L 20.535156 6.648438 L 18.523438 6.648438 L 18.523438 8.71875 L 16.523438 8.71875 L 16.523438 10.796875 L 18.523438 10.796875 L 18.523438 12.863281 L 20.535156 12.863281 L 20.535156 10.796875 L 22.539062 10.796875 L 22.539062 8.71875 Z M 20.535156 8.71875 "/></svg>
